<svg width="228" height="100" viewBox="0 0 228 100" fill="none" xmlns="http://www.w3.org/2000/svg">
<path d="M55.8611 29.75H64.1945C64.9445 32.6389 67.5833 34.7778 70.6945 34.7778C74.4167 34.7778 77.4444 31.75 77.4444 28.0278C77.4444 24.8889 75.3056 22.2778 72.4167 21.5278V13.25C75.3056 12.5 77.4444 9.86111 77.4444 6.75C77.4444 3.02777 74.4167 0 70.6945 0C66.9722 0 63.9445 3.02777 63.9445 6.75C63.9445 9.88889 66.0833 12.5 68.9722 13.25V21.5278C66.6389 22.1389 64.8056 23.9722 64.1945 26.3055H55.8611C55.1111 23.4167 52.4722 21.2778 49.3611 21.2778C45.6389 21.2778 42.6111 24.3056 42.6111 28.0278C42.6111 31.1667 44.75 33.7778 47.6389 34.5278V42.8056C44.75 43.5556 42.6111 46.1944 42.6111 49.3056C42.6111 52.4444 44.75 55.0555 47.6389 55.8055V64.0833C45.3056 64.6944 43.4722 66.5278 42.8611 68.8611H34.5833C33.9722 66.5278 32.1389 64.6944 29.8056 64.0833V55.8055C32.6944 55.0555 34.8333 52.4167 34.8333 49.3056C34.8333 45.5833 31.8056 42.5555 28.0833 42.5555C24.9444 42.5555 22.3333 44.6944 21.5833 47.5833H13.25C12.5 44.6944 9.86111 42.5555 6.75 42.5555C3.02778 42.5555 0 45.5833 0 49.3056C0 53.0278 3.02778 56.0555 6.75 56.0555C9.88889 56.0555 12.5 53.9167 13.25 51.0278H21.5833C22.1944 53.3611 24.0278 55.1944 26.3611 55.8055V64.0833C23.4722 64.8333 21.3333 67.4722 21.3333 70.5833C21.3333 73.7222 23.4722 76.3333 26.3611 77.0833V85.3611C23.4722 86.1111 21.3333 88.75 21.3333 91.8611C21.3333 95.5833 24.3611 98.6111 28.0833 98.6111C31.8056 98.6111 34.8333 95.5833 34.8333 91.8611C34.8333 88.7222 32.6944 86.1111 29.8056 85.3611V77.0833C32.1389 76.4722 33.9722 74.6389 34.5833 72.3056H42.8611C43.6111 75.1944 46.25 77.3333 49.3611 77.3333C53.0833 77.3333 56.1111 74.3055 56.1111 70.5833C56.1111 67.4444 53.9722 64.8333 51.0833 64.0833V55.8055C53.4167 55.1944 55.25 53.3611 55.8611 51.0278H64.1945C64.9445 53.9167 67.5833 56.0555 70.6945 56.0555C74.4167 56.0555 77.4444 53.0278 77.4444 49.3056C77.4444 45.5833 74.4167 42.5555 70.6945 42.5555C67.5556 42.5555 64.9445 44.6944 64.1945 47.5833H55.8611C55.25 45.25 53.4167 43.4167 51.0833 42.8056V34.5278C53.4167 33.9167 55.25 32.0833 55.8611 29.75Z" fill="#17A2B8"/>
<path d="M88.9445 1.30554H110.667C116.917 1.30554 122.056 2.88888 126.083 6.08332C130.5 9.58333 132.722 14.3611 132.722 20.4444V26.3611C132.722 32.4444 130.528 37.3056 126.167 40.9722C122.139 44.3889 116.972 46.1111 110.667 46.1111H106.333V68.6945H88.9722V1.30554H88.9445ZM106.306 17.6111V29.9167H110.472C114.5 29.9167 116.5 27.8611 116.5 23.7222C116.5 19.6389 114.5 17.6111 110.472 17.6111H106.306Z" fill="white"/>
<path d="M179.055 1.30554V17.6111H153.972V26.1944H167.694V42.3333H153.972V52.0833H179.055V68.75H136.611V1.30554H179.055Z" fill="white"/>
<path d="M227.25 1.30554V17.6111H213.972V68.75H196.667V17.6111H183.389V1.30554H227.25Z" fill="white"/>
<path d="M99.0555 79.5V76.1667H92.4166V82.8056H99.0555V86.1389H92.4166V92.7778H99.0555V89.4444H102.389V96.0833H89.1111V72.8333H102.389V79.4722H99.0555V79.5Z" fill="white"/>
<path d="M115.667 96.1111V82.8333H109.028V96.1111H105.694V79.5H118.972V96.1111H115.667Z" fill="white"/>
<path d="M122.306 92.7778V79.5H135.583V99.4167H122.306V96.1389H132.278V92.8056H122.306V92.7778ZM125.639 82.8056V89.4444H132.278V82.8056H125.639Z" fill="white"/>
<path d="M148.889 79.5V76.1667H142.25V92.7778H148.889V89.4444H152.222V96.0833H138.944V72.8333H152.222V79.4722H148.889V79.5Z" fill="white"/>
<path d="M155.528 96.1111V79.5H168.806V96.1111H155.528ZM158.861 92.7778H165.5V82.8056H158.861V92.7778Z" fill="white"/>
<path d="M182.111 96.1111V82.8333H175.472V96.1111H172.139V79.5H195.389V96.1111H192.056V82.8333H185.417V96.1111H182.111Z" fill="white"/>
<path d="M202.056 96.1111V99.3889H198.722V79.4722H212V96.0833H202.056V96.1111ZM202.056 92.7778H208.694V82.8056H202.056V92.7778Z" fill="white"/>
<path d="M225.333 68.5H216.028V67.1667H224V64.5H216.028V63.1667H225.333V68.5Z" fill="white"/>
<path d="M218.667 57.8611H217.333V60.5278H220V57.8611H221.333V60.5278H225.333V61.8611H216.028V56.5555H218.694V57.8611H218.667Z" fill="white"/>
<path d="M218.667 51.2222H217.333V53.8889H220V51.2222H221.333V53.8889H224V51.2222H222.667V49.8889H225.333V55.1944H216.028V49.8889H218.694V51.2222H218.667Z" fill="white"/>
<path d="M221.333 48.5555H216.028V43.25H218.694V44.5833H217.361V47.25H220.028V43.25H225.333V48.5555H222.667V47.2222H224V44.5556H221.333V48.5555Z" fill="white"/>
</svg>
